<svg width="100%" height="100%" viewBox="0 0 48 48" fill="none" xmlns="http://www.w3.org/2000/svg">
<path d="M1.5 46.5V31.38C1.5 24.7526 6.87258 19.38 13.5 19.38C20.1274 19.38 25.5 24.7526 25.5 31.38V46.5" stroke="#B1BFC5" stroke-linecap="round" stroke-linejoin="round"/>
<path d="M19.5 1.5V7.5" stroke="#B1BFC5" stroke-linecap="round" stroke-linejoin="round"/>
<path d="M16.5 4.5H22.5" stroke="#B1BFC5" stroke-linecap="round" stroke-linejoin="round"/>
<path d="M40.5 21V27" stroke="#B1BFC5" stroke-linecap="round" stroke-linejoin="round"/>
<path d="M37.5 24H43.5" stroke="#B1BFC5" stroke-linecap="round" stroke-linejoin="round"/>
<path fill-rule="evenodd" clip-rule="evenodd" d="M40.5 1.5C40.4739 4.80283 37.8028 7.47389 34.5 7.5C37.8028 7.52611 40.4739 10.1972 40.5 13.5C40.5261 10.1972 43.1972 7.52611 46.5 7.5C43.1972 7.47389 40.5261 4.80283 40.5 1.5Z" stroke="#B1BFC5" stroke-linecap="round" stroke-linejoin="round"/>
<path d="M23.046 15.584L26.6 10.93C26.7918 10.6795 27.0823 10.5238 27.3971 10.5027C27.7119 10.4816 28.0206 10.5973 28.244 10.82L32.68 15.25C32.9028 15.4735 33.0184 15.7821 32.9973 16.0969C32.9763 16.4117 32.8206 16.7022 32.57 16.894L28.326 20.14" stroke="#B1BFC5" stroke-linecap="round" stroke-linejoin="round"/>
<path d="M31.5 31.85V29.694C31.4032 24.2265 28.606 19.1615 24.03 16.1676C19.454 13.1736 13.6927 12.6391 8.64404 14.74" stroke="#B1BFC5" stroke-linecap="round" stroke-linejoin="round"/>
<path d="M1.5 31.5H25.5" stroke="#B1BFC5" stroke-linecap="round" stroke-linejoin="round"/>
<path d="M10.5 46.5V42C10.5 40.3431 11.8431 39 13.5 39C15.1569 39 16.5 40.3431 16.5 42V46.5" stroke="#B1BFC5" stroke-linecap="round" stroke-linejoin="round"/>
</svg>
