<svg width="100%" height="100%" viewBox="0 0 48 48" fill="none" xmlns="http://www.w3.org/2000/svg">
<path d="M16.6153 32.0004H3.20815C2.13118 32.0139 1.24646 31.1531 1.23071 30.0762V3.15308C1.24646 2.07646 2.13152 1.21619 3.20815 1.23084H40.7917C41.8684 1.21619 42.7534 2.07646 42.7692 3.15308V10.4618" stroke="#B1BFC5" stroke-linecap="round" stroke-linejoin="round"/>
<path fill-rule="evenodd" clip-rule="evenodd" d="M31.2307 35.0771C31.6555 35.0771 31.9999 35.4215 31.9999 35.8464C31.9999 36.2712 31.6555 36.6156 31.2307 36.6156C30.8058 36.6156 30.4614 36.2712 30.4614 35.8464C30.4614 35.4215 30.8058 35.0771 31.2307 35.0771Z" stroke="#B1BFC5" stroke-linecap="round" stroke-linejoin="round"/>
<path fill-rule="evenodd" clip-rule="evenodd" d="M38.923 35.0771C39.3479 35.0771 39.6923 35.4215 39.6923 35.8464C39.6923 36.2712 39.3479 36.6156 38.923 36.6156C38.4982 36.6156 38.1538 36.2712 38.1538 35.8464C38.1538 35.4215 38.4982 35.0771 38.923 35.0771Z" stroke="#B1BFC5" stroke-linecap="round" stroke-linejoin="round"/>
<path fill-rule="evenodd" clip-rule="evenodd" d="M31.2307 41.231C31.6555 41.231 31.9999 41.5754 31.9999 42.0002C31.9999 42.4251 31.6555 42.7695 31.2307 42.7695C30.8058 42.7695 30.4614 42.4251 30.4614 42.0002C30.4614 41.5754 30.8058 41.231 31.2307 41.231Z" stroke="#B1BFC5" stroke-linecap="round" stroke-linejoin="round"/>
<path fill-rule="evenodd" clip-rule="evenodd" d="M38.923 41.231C39.3479 41.231 39.6923 41.5754 39.6923 42.0002C39.6923 42.4251 39.3479 42.7695 38.923 42.7695C38.4982 42.7695 38.1538 42.4251 38.1538 42.0002C38.1538 41.5754 38.4982 41.231 38.923 41.231Z" stroke="#B1BFC5" stroke-linecap="round" stroke-linejoin="round"/>
<path fill-rule="evenodd" clip-rule="evenodd" d="M41.2307 27.8977C41.2307 28.6218 40.7917 28.9233 40.3507 28.9233H29.803C29.362 28.9233 28.925 28.5869 28.925 27.8608V23.7951C28.925 23.069 29.364 22.7695 29.805 22.7695H40.3527C40.7938 22.7695 41.2327 23.069 41.2327 23.7951L41.2307 27.8977Z" stroke="#B1BFC5" stroke-linecap="round" stroke-linejoin="round"/>
<path d="M45.9569 16.6156H24.1969C23.4084 16.6156 22.7692 17.2548 22.7692 18.0433V45.9571C22.7692 46.7456 23.4084 47.3848 24.1969 47.3848H45.9569C46.7453 47.3848 47.3845 46.7456 47.3845 45.9571V18.0433C47.3845 17.2548 46.7453 16.6156 45.9569 16.6156Z" stroke="#B1BFC5" stroke-linecap="round" stroke-linejoin="round"/>
<path d="M7.38452 16.6157L11.9999 12.0003L18.1538 15.0772L25.8461 7.38489" stroke="#B1BFC5" stroke-linecap="round" stroke-linejoin="round"/>
<path d="M21.2307 7.38489H25.8461V12.0003" stroke="#B1BFC5" stroke-linecap="round" stroke-linejoin="round"/>
</svg>
