<svg width="24" height="24" viewBox="0 0 24 24" fill="none" xmlns="http://www.w3.org/2000/svg">
<path d="M12 22.5C9.21523 22.5 6.54451 21.3938 4.57538 19.4246C2.60625 17.4555 1.5 14.7848 1.5 12C1.5 9.21523 2.60625 6.54451 4.57538 4.57538C6.54451 2.60625 9.21523 1.5 12 1.5C14.7848 1.5 17.4555 2.60625 19.4246 4.57538C21.3938 6.54451 22.5 9.21523 22.5 12C22.5 14.7848 21.3938 17.4555 19.4246 19.4246C17.4555 21.3938 14.7848 22.5 12 22.5ZM12 24C15.1826 24 18.2348 22.7357 20.4853 20.4853C22.7357 18.2348 24 15.1826 24 12C24 8.8174 22.7357 5.76516 20.4853 3.51472C18.2348 1.26428 15.1826 0 12 0C8.8174 0 5.76516 1.26428 3.51472 3.51472C1.26428 5.76516 0 8.8174 0 12C0 15.1826 1.26428 18.2348 3.51472 20.4853C5.76516 22.7357 8.8174 24 12 24Z" fill="#5FC4B8"/>
<path fill-rule="evenodd" clip-rule="evenodd" d="M7.50279 14.2446C7.64344 14.104 7.83417 14.025 8.03304 14.025C8.23192 14.025 8.42265 14.104 8.56329 14.2446L12.0028 17.6841L15.4423 14.2446C15.5115 14.173 15.5942 14.1158 15.6857 14.0765C15.7772 14.0372 15.8757 14.0165 15.9752 14.0157C16.0748 14.0148 16.1736 14.0338 16.2658 14.0715C16.3579 14.1092 16.4417 14.1649 16.5121 14.2353C16.5825 14.3057 16.6382 14.3895 16.6759 14.4816C16.7136 14.5738 16.7326 14.6726 16.7317 14.7721C16.7309 14.8717 16.7102 14.9701 16.6709 15.0616C16.6316 15.1531 16.5744 15.2359 16.5028 15.3051L12.5338 19.2756C12.4641 19.3454 12.3814 19.4008 12.2902 19.4387C12.1991 19.4765 12.1014 19.4959 12.0028 19.4959C11.9041 19.4959 11.8065 19.4765 11.7153 19.4387C11.6242 19.4008 11.5415 19.3454 11.4718 19.2756L7.50279 15.3051C7.36219 15.1644 7.2832 14.9737 7.2832 14.7748C7.2832 14.576 7.36219 14.3852 7.50279 14.2446Z" fill="#5FC4B8"/>
<path fill-rule="evenodd" clip-rule="evenodd" d="M12 4.5C12.1989 4.5 12.3897 4.57902 12.5303 4.71967C12.671 4.86032 12.75 5.05109 12.75 5.25V17.25C12.75 17.4489 12.671 17.6397 12.5303 17.7803C12.3897 17.921 12.1989 18 12 18C11.8011 18 11.6103 17.921 11.4697 17.7803C11.329 17.6397 11.25 17.4489 11.25 17.25V5.25C11.25 5.05109 11.329 4.86032 11.4697 4.71967C11.6103 4.57902 11.8011 4.5 12 4.5Z" fill="#5FC4B8"/>
</svg>
