<svg width="24" height="24" viewBox="0 0 24 24" fill="none" xmlns="http://www.w3.org/2000/svg">
<path d="M22.5 12C22.5 14.7848 21.3938 17.4555 19.4246 19.4246C17.4555 21.3938 14.7848 22.5 12 22.5C9.21523 22.5 6.54451 21.3938 4.57538 19.4246C2.60625 17.4555 1.5 14.7848 1.5 12C1.5 9.21523 2.60625 6.54451 4.57538 4.57538C6.54451 2.60625 9.21523 1.5 12 1.5C14.7848 1.5 17.4555 2.60625 19.4246 4.57538C21.3938 6.54451 22.5 9.21523 22.5 12ZM24 12C24 8.8174 22.7357 5.76515 20.4853 3.51472C18.2348 1.26428 15.1826 -6.63652e-07 12 -5.24537e-07C8.8174 -3.85421e-07 5.76515 1.26428 3.51472 3.51472C1.26428 5.76515 -6.63652e-07 8.8174 -5.24537e-07 12C-3.85421e-07 15.1826 1.26428 18.2348 3.51472 20.4853C5.76516 22.7357 8.8174 24 12 24C15.1826 24 18.2348 22.7357 20.4853 20.4853C22.7357 18.2348 24 15.1826 24 12Z" fill="#5E636B"/>
<path d="M6.96839 6.97034C7.03806 6.9005 7.12082 6.84508 7.21194 6.80727C7.30305 6.76946 7.40074 6.75 7.49939 6.75C7.59804 6.75 7.69572 6.76946 7.78684 6.80727C7.87796 6.84508 7.96072 6.9005 8.03039 6.97034L11.9994 10.9408L15.9684 6.97034C16.0381 6.90061 16.1209 6.84529 16.212 6.80756C16.3031 6.76982 16.4008 6.75039 16.4994 6.75039C16.598 6.75039 16.6957 6.76982 16.7868 6.80756C16.8779 6.84529 16.9607 6.90061 17.0304 6.97034C17.1001 7.04007 17.1554 7.12286 17.1932 7.21396C17.2309 7.30507 17.2503 7.40272 17.2503 7.50134C17.2503 7.59996 17.2309 7.69761 17.1932 7.78872C17.1554 7.87982 17.1001 7.96261 17.0304 8.03234L13.0599 12.0013L17.0304 15.9703C17.1001 16.0401 17.1554 16.1229 17.1932 16.214C17.2309 16.3051 17.2503 16.4027 17.2503 16.5013C17.2503 16.6 17.2309 16.6976 17.1932 16.7887C17.1554 16.8798 17.1001 16.9626 17.0304 17.0323C16.9607 17.1021 16.8779 17.1574 16.7868 17.1951C16.6957 17.2329 16.598 17.2523 16.4994 17.2523C16.4008 17.2523 16.3031 17.2329 16.212 17.1951C16.1209 17.1574 16.0381 17.1021 15.9684 17.0323L11.9994 13.0618L8.03039 17.0323C7.96066 17.1021 7.87787 17.1574 7.78676 17.1951C7.69565 17.2329 7.598 17.2523 7.49939 17.2523C7.40077 17.2523 7.30312 17.2329 7.21201 17.1951C7.1209 17.1574 7.03812 17.1021 6.96839 17.0323C6.89866 16.9626 6.84334 16.8798 6.8056 16.7887C6.76786 16.6976 6.74844 16.6 6.74844 16.5013C6.74844 16.4027 6.76786 16.3051 6.8056 16.214C6.84334 16.1229 6.89866 16.0401 6.96839 15.9703L10.9389 12.0013L6.96839 8.03234C6.89854 7.96267 6.84313 7.87991 6.80532 7.78879C6.76751 7.69767 6.74805 7.59999 6.74805 7.50134C6.74805 7.40269 6.76751 7.30501 6.80532 7.21389C6.84313 7.12277 6.89854 7.04001 6.96839 6.97034Z" fill="#5FC4B8"/>
</svg>
