<svg width="24" height="24" viewBox="0 0 24 24" fill="none" xmlns="http://www.w3.org/2000/svg">
<path d="M12 22.5C9.21523 22.5 6.54451 21.3938 4.57538 19.4246C2.60625 17.4555 1.5 14.7848 1.5 12C1.5 9.21523 2.60625 6.54451 4.57538 4.57538C6.54451 2.60625 9.21523 1.5 12 1.5C14.7848 1.5 17.4555 2.60625 19.4246 4.57538C21.3938 6.54451 22.5 9.21523 22.5 12C22.5 14.7848 21.3938 17.4555 19.4246 19.4246C17.4555 21.3938 14.7848 22.5 12 22.5ZM12 24C15.1826 24 18.2348 22.7357 20.4853 20.4853C22.7357 18.2348 24 15.1826 24 12C24 8.8174 22.7357 5.76516 20.4853 3.51472C18.2348 1.26428 15.1826 0 12 0C8.8174 0 5.76516 1.26428 3.51472 3.51472C1.26428 5.76516 0 8.8174 0 12C0 15.1826 1.26428 18.2348 3.51472 20.4853C5.76516 22.7357 8.8174 24 12 24Z" fill="#5FC4B8"/>
<path d="M9.4065 7.58321C9.52918 7.52004 9.6669 7.49194 9.80452 7.50199C9.94214 7.51205 10.0743 7.55988 10.1865 7.64021L15.4365 11.3902C15.5337 11.4596 15.613 11.5512 15.6676 11.6574C15.7223 11.7636 15.7509 11.8813 15.7509 12.0007C15.7509 12.1202 15.7223 12.2379 15.6676 12.3441C15.613 12.4502 15.5337 12.5418 15.4365 12.6112L10.1865 16.3612C10.0743 16.4415 9.94224 16.4893 9.80469 16.4993C9.66715 16.5094 9.52949 16.4813 9.40686 16.4182C9.28422 16.3551 9.18136 16.2594 9.10958 16.1417C9.03781 16.0239 8.99989 15.8886 9 15.7507V8.25071C8.99986 8.11284 9.03772 7.97759 9.10943 7.85983C9.18115 7.74207 9.28393 7.64636 9.4065 7.58321Z" fill="#5FC4B8"/>
</svg>
