<svg width="100%" height="100%" viewBox="0 0 45 48" fill="none" xmlns="http://www.w3.org/2000/svg">
<path d="M36.9999 46.5V33.97C42.6557 28.7305 44.5231 20.5605 41.7051 13.3842C38.8872 6.20783 31.9597 1.49134 24.2499 1.50001C9.24194 1.50001 6.59994 14.49 0.999939 28.5H6.99994V34.5C6.99994 37.8137 9.68623 40.5 12.9999 40.5H15.9999V46.5" stroke="#B1BFC5" stroke-linecap="round" stroke-linejoin="round"/>
<path d="M23.4999 24C25.1568 24 26.4999 22.6569 26.4999 21C26.4999 19.3431 25.1568 18 23.4999 18C21.8431 18 20.4999 19.3431 20.4999 21C20.4999 22.6569 21.8431 24 23.4999 24Z" stroke="#B1BFC5" stroke-linecap="round" stroke-linejoin="round"/>
<path fill-rule="evenodd" clip-rule="evenodd" d="M20.952 9.40005L20.068 12.3C19.7653 13.3009 18.739 13.8962 17.72 13.662L14.776 12.98C13.6306 12.7219 12.4506 13.24 11.8655 14.2579C11.2803 15.2758 11.4265 16.5562 12.226 17.416L14.288 19.638C15.0019 20.4057 15.0019 21.5944 14.288 22.362L12.226 24.584C11.4265 25.4439 11.2803 26.7243 11.8655 27.7422C12.4506 28.7601 13.6306 29.2782 14.776 29.02L17.72 28.338C18.739 28.1039 19.7653 28.6992 20.068 29.7L20.952 32.606C21.2893 33.7315 22.325 34.5023 23.5 34.5023C24.6749 34.5023 25.7106 33.7315 26.048 32.606L26.932 29.7C27.2347 28.6992 28.2609 28.1039 29.28 28.338L32.224 29.02C33.3693 29.2782 34.5493 28.7601 35.1345 27.7422C35.7196 26.7243 35.5734 25.4439 34.774 24.584L32.712 22.362C31.998 21.5944 31.998 20.4057 32.712 19.638L34.774 17.416C35.5734 16.5562 35.7196 15.2758 35.1345 14.2579C34.5493 13.24 33.3693 12.7219 32.224 12.98L29.28 13.662C28.2609 13.8962 27.2347 13.3009 26.932 12.3L26.048 9.40005C25.7106 8.2746 24.6749 7.50378 23.5 7.50378C22.325 7.50378 21.2893 8.2746 20.952 9.40005Z" stroke="#B1BFC5" stroke-linecap="round" stroke-linejoin="round"/>
</svg>
